<mxfile host="app.diagrams.net" agent="Mozilla/5.0 (Windows NT 10.0; Win64; x64) AppleWebKit/537.36 (KHTML, like Gecko) Chrome/138.0.0.0 Safari/537.36" version="28.2.0">
  <diagram name="Page-1" id="fRlSAfIAeB5w97w3QQPI">
    <mxGraphModel dx="1423" dy="624" grid="1" gridSize="10" guides="1" tooltips="1" connect="1" arrows="1" fold="1" page="1" pageScale="1" pageWidth="850" pageHeight="1100" math="0" shadow="0">
      <root>
        <mxCell id="0" />
        <mxCell id="1" parent="0" />
        <mxCell id="QBiXnB1Uu2VvRF2_7HW8-3" style="edgeStyle=orthogonalEdgeStyle;rounded=0;orthogonalLoop=1;jettySize=auto;html=1;entryX=0.5;entryY=0;entryDx=0;entryDy=0;" edge="1" parent="1" source="QBiXnB1Uu2VvRF2_7HW8-1">
          <mxGeometry relative="1" as="geometry">
            <mxPoint x="425" y="130" as="targetPoint" />
          </mxGeometry>
        </mxCell>
        <mxCell id="QBiXnB1Uu2VvRF2_7HW8-1" value="เริ่ม" style="ellipse;whiteSpace=wrap;html=1;" vertex="1" parent="1">
          <mxGeometry x="365" y="40" width="120" height="50" as="geometry" />
        </mxCell>
        <mxCell id="QBiXnB1Uu2VvRF2_7HW8-28" value="สิ้นสุด" style="ellipse;whiteSpace=wrap;html=1;" vertex="1" parent="1">
          <mxGeometry x="365" y="1060" width="120" height="50" as="geometry" />
        </mxCell>
        <mxCell id="QBiXnB1Uu2VvRF2_7HW8-36" style="edgeStyle=orthogonalEdgeStyle;rounded=0;orthogonalLoop=1;jettySize=auto;html=1;entryX=0.5;entryY=0;entryDx=0;entryDy=0;" edge="1" parent="1" source="QBiXnB1Uu2VvRF2_7HW8-34" target="QBiXnB1Uu2VvRF2_7HW8-35">
          <mxGeometry relative="1" as="geometry" />
        </mxCell>
        <mxCell id="QBiXnB1Uu2VvRF2_7HW8-34" value="รับค่า n" style="rounded=0;whiteSpace=wrap;html=1;" vertex="1" parent="1">
          <mxGeometry x="365" y="130" width="120" height="40" as="geometry" />
        </mxCell>
        <mxCell id="QBiXnB1Uu2VvRF2_7HW8-38" style="edgeStyle=orthogonalEdgeStyle;rounded=0;orthogonalLoop=1;jettySize=auto;html=1;entryX=0.5;entryY=0;entryDx=0;entryDy=0;" edge="1" parent="1" source="QBiXnB1Uu2VvRF2_7HW8-35" target="QBiXnB1Uu2VvRF2_7HW8-37">
          <mxGeometry relative="1" as="geometry" />
        </mxCell>
        <mxCell id="QBiXnB1Uu2VvRF2_7HW8-35" value="การแสดงผลข้อความ&lt;div&gt;n&lt;/div&gt;" style="shape=parallelogram;perimeter=parallelogramPerimeter;whiteSpace=wrap;html=1;fixedSize=1;" vertex="1" parent="1">
          <mxGeometry x="365" y="200" width="120" height="40" as="geometry" />
        </mxCell>
        <mxCell id="QBiXnB1Uu2VvRF2_7HW8-40" style="edgeStyle=orthogonalEdgeStyle;rounded=0;orthogonalLoop=1;jettySize=auto;html=1;entryX=0.5;entryY=0;entryDx=0;entryDy=0;" edge="1" parent="1" source="QBiXnB1Uu2VvRF2_7HW8-37" target="QBiXnB1Uu2VvRF2_7HW8-39">
          <mxGeometry relative="1" as="geometry" />
        </mxCell>
        <mxCell id="QBiXnB1Uu2VvRF2_7HW8-37" value="รับข้อมูลตัวเลขจากผู้ใช้&lt;div&gt;n&lt;/div&gt;" style="shape=parallelogram;perimeter=parallelogramPerimeter;whiteSpace=wrap;html=1;fixedSize=1;" vertex="1" parent="1">
          <mxGeometry x="365" y="270" width="120" height="40" as="geometry" />
        </mxCell>
        <mxCell id="QBiXnB1Uu2VvRF2_7HW8-51" style="edgeStyle=orthogonalEdgeStyle;rounded=0;orthogonalLoop=1;jettySize=auto;html=1;entryX=0.5;entryY=0;entryDx=0;entryDy=0;" edge="1" parent="1" source="QBiXnB1Uu2VvRF2_7HW8-39" target="QBiXnB1Uu2VvRF2_7HW8-45">
          <mxGeometry relative="1" as="geometry" />
        </mxCell>
        <mxCell id="QBiXnB1Uu2VvRF2_7HW8-39" value="สร้างกล่องเก็บข้อมูลทั้งหมด" style="rounded=0;whiteSpace=wrap;html=1;" vertex="1" parent="1">
          <mxGeometry x="365" y="340" width="120" height="40" as="geometry" />
        </mxCell>
        <mxCell id="QBiXnB1Uu2VvRF2_7HW8-53" style="edgeStyle=orthogonalEdgeStyle;rounded=0;orthogonalLoop=1;jettySize=auto;html=1;entryX=0.5;entryY=0;entryDx=0;entryDy=0;" edge="1" parent="1" source="QBiXnB1Uu2VvRF2_7HW8-45" target="QBiXnB1Uu2VvRF2_7HW8-46">
          <mxGeometry relative="1" as="geometry" />
        </mxCell>
        <mxCell id="QBiXnB1Uu2VvRF2_7HW8-45" value="ทำซ้ำ ๆ เพื่อรับข้อมูล" style="rounded=0;whiteSpace=wrap;html=1;" vertex="1" parent="1">
          <mxGeometry x="365" y="410" width="120" height="40" as="geometry" />
        </mxCell>
        <mxCell id="QBiXnB1Uu2VvRF2_7HW8-54" style="edgeStyle=orthogonalEdgeStyle;rounded=0;orthogonalLoop=1;jettySize=auto;html=1;entryX=0.5;entryY=0;entryDx=0;entryDy=0;" edge="1" parent="1" source="QBiXnB1Uu2VvRF2_7HW8-46" target="QBiXnB1Uu2VvRF2_7HW8-47">
          <mxGeometry relative="1" as="geometry" />
        </mxCell>
        <mxCell id="QBiXnB1Uu2VvRF2_7HW8-46" value="การแสดงข้อความขึ้นบรรทัดใหม่" style="shape=parallelogram;perimeter=parallelogramPerimeter;whiteSpace=wrap;html=1;fixedSize=1;" vertex="1" parent="1">
          <mxGeometry x="365" y="480" width="120" height="40" as="geometry" />
        </mxCell>
        <mxCell id="QBiXnB1Uu2VvRF2_7HW8-56" style="edgeStyle=orthogonalEdgeStyle;rounded=0;orthogonalLoop=1;jettySize=auto;html=1;entryX=0.5;entryY=0;entryDx=0;entryDy=0;" edge="1" parent="1" source="QBiXnB1Uu2VvRF2_7HW8-47" target="QBiXnB1Uu2VvRF2_7HW8-48">
          <mxGeometry relative="1" as="geometry" />
        </mxCell>
        <mxCell id="QBiXnB1Uu2VvRF2_7HW8-47" value="ทำซ้ำ ๆ เพื่อแสดงตำแหน่งของข้อมูล" style="rounded=0;whiteSpace=wrap;html=1;" vertex="1" parent="1">
          <mxGeometry x="365" y="550" width="120" height="40" as="geometry" />
        </mxCell>
        <mxCell id="QBiXnB1Uu2VvRF2_7HW8-57" style="edgeStyle=orthogonalEdgeStyle;rounded=0;orthogonalLoop=1;jettySize=auto;html=1;" edge="1" parent="1" source="QBiXnB1Uu2VvRF2_7HW8-48" target="QBiXnB1Uu2VvRF2_7HW8-49">
          <mxGeometry relative="1" as="geometry" />
        </mxCell>
        <mxCell id="QBiXnB1Uu2VvRF2_7HW8-48" value="แสดงผลข้อความ" style="shape=parallelogram;perimeter=parallelogramPerimeter;whiteSpace=wrap;html=1;fixedSize=1;" vertex="1" parent="1">
          <mxGeometry x="365" y="620" width="120" height="40" as="geometry" />
        </mxCell>
        <mxCell id="QBiXnB1Uu2VvRF2_7HW8-58" style="edgeStyle=orthogonalEdgeStyle;rounded=0;orthogonalLoop=1;jettySize=auto;html=1;entryX=0.5;entryY=0;entryDx=0;entryDy=0;" edge="1" parent="1" source="QBiXnB1Uu2VvRF2_7HW8-49" target="QBiXnB1Uu2VvRF2_7HW8-50">
          <mxGeometry relative="1" as="geometry" />
        </mxCell>
        <mxCell id="QBiXnB1Uu2VvRF2_7HW8-49" value="วนซ้ำเพื่อแสดงผลข้อมูลทั้งหมดที่อยู่ในกล่อง" style="rounded=0;whiteSpace=wrap;html=1;" vertex="1" parent="1">
          <mxGeometry x="365" y="690" width="120" height="40" as="geometry" />
        </mxCell>
        <mxCell id="QBiXnB1Uu2VvRF2_7HW8-61" style="edgeStyle=orthogonalEdgeStyle;rounded=0;orthogonalLoop=1;jettySize=auto;html=1;entryX=0.5;entryY=0;entryDx=0;entryDy=0;" edge="1" parent="1" source="QBiXnB1Uu2VvRF2_7HW8-50" target="QBiXnB1Uu2VvRF2_7HW8-59">
          <mxGeometry relative="1" as="geometry">
            <Array as="points">
              <mxPoint x="298" y="800" />
            </Array>
          </mxGeometry>
        </mxCell>
        <mxCell id="QBiXnB1Uu2VvRF2_7HW8-62" style="edgeStyle=orthogonalEdgeStyle;rounded=0;orthogonalLoop=1;jettySize=auto;html=1;entryX=0.5;entryY=0;entryDx=0;entryDy=0;" edge="1" parent="1" source="QBiXnB1Uu2VvRF2_7HW8-50" target="QBiXnB1Uu2VvRF2_7HW8-60">
          <mxGeometry relative="1" as="geometry" />
        </mxCell>
        <mxCell id="QBiXnB1Uu2VvRF2_7HW8-50" value="if (i == 0 || i == n - 1)&lt;div&gt;การตัดสินใจ&lt;/div&gt;" style="rhombus;whiteSpace=wrap;html=1;" vertex="1" parent="1">
          <mxGeometry x="358" y="760" width="135" height="80" as="geometry" />
        </mxCell>
        <mxCell id="QBiXnB1Uu2VvRF2_7HW8-64" style="edgeStyle=orthogonalEdgeStyle;rounded=0;orthogonalLoop=1;jettySize=auto;html=1;entryX=0;entryY=0.5;entryDx=0;entryDy=0;" edge="1" parent="1" source="QBiXnB1Uu2VvRF2_7HW8-59">
          <mxGeometry relative="1" as="geometry">
            <mxPoint x="402.00000000000114" y="993" as="targetPoint" />
            <Array as="points">
              <mxPoint x="300" y="993" />
            </Array>
          </mxGeometry>
        </mxCell>
        <mxCell id="QBiXnB1Uu2VvRF2_7HW8-59" value="printf(&quot;%d &quot;)" style="shape=parallelogram;perimeter=parallelogramPerimeter;whiteSpace=wrap;html=1;fixedSize=1;" vertex="1" parent="1">
          <mxGeometry x="238" y="910" width="120" height="40" as="geometry" />
        </mxCell>
        <mxCell id="QBiXnB1Uu2VvRF2_7HW8-65" style="edgeStyle=orthogonalEdgeStyle;rounded=0;orthogonalLoop=1;jettySize=auto;html=1;entryX=1;entryY=0.5;entryDx=0;entryDy=0;" edge="1" parent="1" source="QBiXnB1Uu2VvRF2_7HW8-60">
          <mxGeometry relative="1" as="geometry">
            <mxPoint x="447.99999999999886" y="993" as="targetPoint" />
            <Array as="points">
              <mxPoint x="570" y="993" />
            </Array>
          </mxGeometry>
        </mxCell>
        <mxCell id="QBiXnB1Uu2VvRF2_7HW8-76" style="edgeStyle=orthogonalEdgeStyle;rounded=0;orthogonalLoop=1;jettySize=auto;html=1;entryX=1;entryY=0.5;entryDx=0;entryDy=0;" edge="1" parent="1" source="QBiXnB1Uu2VvRF2_7HW8-60" target="QBiXnB1Uu2VvRF2_7HW8-49">
          <mxGeometry relative="1" as="geometry">
            <Array as="points">
              <mxPoint x="700" y="930" />
              <mxPoint x="700" y="710" />
            </Array>
          </mxGeometry>
        </mxCell>
        <mxCell id="QBiXnB1Uu2VvRF2_7HW8-60" value="printf(&quot;#  &quot;)" style="shape=parallelogram;perimeter=parallelogramPerimeter;whiteSpace=wrap;html=1;fixedSize=1;" vertex="1" parent="1">
          <mxGeometry x="510" y="910" width="120" height="40" as="geometry" />
        </mxCell>
        <mxCell id="QBiXnB1Uu2VvRF2_7HW8-67" style="edgeStyle=orthogonalEdgeStyle;rounded=0;orthogonalLoop=1;jettySize=auto;html=1;exitX=0.5;exitY=1;exitDx=0;exitDy=0;entryX=0.5;entryY=0;entryDx=0;entryDy=0;" edge="1" parent="1" target="QBiXnB1Uu2VvRF2_7HW8-28">
          <mxGeometry relative="1" as="geometry">
            <mxPoint x="425" y="1015.9999999999998" as="sourcePoint" />
          </mxGeometry>
        </mxCell>
        <mxCell id="QBiXnB1Uu2VvRF2_7HW8-69" value="yes" style="text;html=1;align=center;verticalAlign=middle;whiteSpace=wrap;rounded=0;" vertex="1" parent="1">
          <mxGeometry x="240" y="880" width="60" height="30" as="geometry" />
        </mxCell>
        <mxCell id="QBiXnB1Uu2VvRF2_7HW8-70" value="no" style="text;html=1;align=center;verticalAlign=middle;whiteSpace=wrap;rounded=0;" vertex="1" parent="1">
          <mxGeometry x="560" y="890" width="60" height="20" as="geometry" />
        </mxCell>
        <mxCell id="QBiXnB1Uu2VvRF2_7HW8-72" value="" style="ellipse;whiteSpace=wrap;html=1;aspect=fixed;" vertex="1" parent="1">
          <mxGeometry x="405" y="970" width="40" height="40" as="geometry" />
        </mxCell>
      </root>
    </mxGraphModel>
  </diagram>
</mxfile>
